<svg xmlns="http://www.w3.org/2000/svg" width="140" height="140" fill="none"><path fill="#E0E0E6" d="M140 70c0 38.66-31.34 70-70 70S0 108.66 0 70 31.34 0 70 0s70 31.34 70 70zM25.2 70c0 24.742 20.058 44.8 44.8 44.8 24.742 0 44.8-20.058 44.8-44.8 0-24.742-20.058-44.8-44.8-44.8-24.742 0-44.8 20.058-44.8 44.8z"/><path fill="#F27128" d="M70 0a70.004 70.004 0 0 1 56.527 28.712 69.992 69.992 0 0 1 10.155 62.583 69.993 69.993 0 0 1-44.547 45.113 69.998 69.998 0 0 1-62.706-9.364l14.606-20.536a44.803 44.803 0 0 0 57.843-5.03 44.805 44.805 0 0 0 12.344-38.654 44.807 44.807 0 0 0-23.934-32.767A44.8 44.8 0 0 0 70 25.2V0z"/><path fill="#272731" d="M70 0a70.002 70.002 0 0 1 62.801 39.08l-22.609 11.13A44.794 44.794 0 0 0 70 25.2V0z"/></svg>