<?xml version="1.0" encoding="UTF-8"?>
<svg version="1.1" xmlns="http://www.w3.org/2000/svg" width="1536" height="1024">

<path d="M0 0 C0.6815918 0.34361572 1.36318359 0.68723145 2.06542969 1.04125977 C16.27718704 8.31443302 29.16138084 17.29421992 40.88671875 28.140625 C42.9588264 30.04035018 45.08591131 31.83226381 47.25 33.625 C52.21434567 37.9500738 56.11790553 43.1018911 60.1875 48.25 C60.83460938 49.00796875 61.48171875 49.7659375 62.1484375 50.546875 C82.0671179 74.12408853 100.46938449 111.71564159 99.1875 143.25 C99.868125 143.45625 100.54875 143.6625 101.25 143.875 C105.15518716 145.70295995 108.25751771 148.08144409 111.1875 151.25 C111.579375 152.343125 111.97125 153.43625 112.375 154.5625 C113.2721875 155.8928125 113.2721875 155.8928125 114.1875 157.25 C117.0057604 157.77118514 119.75346678 157.82617952 122.6171875 157.9296875 C129.41775504 158.53980406 135.79150213 160.96637145 142.1875 163.25 C142.8475 163.48380371 143.5075 163.71760742 144.1875 163.95849609 C172.15682827 174.03772079 193.35153267 194.72292516 206.28710938 221.28564453 C217.29808007 245.30795206 217.58989948 275.03513243 208.6237793 299.71362305 C202.67960091 315.18069196 193.83660936 327.5836327 182.1875 339.25 C181.11435547 340.34054687 181.11435547 340.34054687 180.01953125 341.453125 C173.5489934 347.6201667 165.98598007 351.98636322 158.1875 356.25 C157.58131836 356.58451172 156.97513672 356.91902344 156.35058594 357.26367188 C132.93311239 369.92107737 101.62001913 372.14637634 76.2265625 364.921875 C56.09463004 358.55623111 40.63565691 346.73979133 25.07861328 332.92333984 C21.97052768 330.1731696 18.82767156 327.46339984 15.6875 324.75 C11.88579747 321.45863985 8.08709198 318.16395858 4.296875 314.859375 C-1.34324349 309.94770082 -6.98902097 305.06878775 -12.8125 300.375 C-16.49864076 297.39227959 -19.88130352 294.27989449 -23.1953125 290.89453125 C-24.91511359 289.1456514 -26.64431926 287.42389189 -28.4375 285.75 C-28.96601562 285.2446875 -29.49453125 284.739375 -30.0390625 284.21875 C-31.80995409 283.06568884 -31.80995409 283.06568884 -34.09765625 283.26171875 C-37.867031 284.63387963 -40.60332613 287.00569904 -43.625 289.5625 C-44.96303657 290.66495743 -46.30294126 291.76515076 -47.64453125 292.86328125 C-48.33240723 293.42740723 -49.0202832 293.9915332 -49.72900391 294.57275391 C-53.02217645 297.22380797 -56.41402633 299.73631141 -59.8125 302.25 C-67.09633103 307.6591197 -74.18032131 313.29259303 -81.2421875 318.98681641 C-85.8873926 322.72349103 -90.60652992 326.35604094 -95.38671875 329.91796875 C-96.73705621 330.92437581 -98.08731376 331.93089008 -99.4375 332.9375 C-100.12561768 333.45038574 -100.81373535 333.96327148 -101.52270508 334.49169922 C-106.87626689 338.50174146 -112.1005102 342.65252135 -117.28295898 346.88061523 C-120.95907608 349.85363648 -124.72056665 352.59323211 -128.63793945 355.23876953 C-133.75494944 358.70467665 -137.74741264 361.44383521 -139.96484375 367.4296875 C-142.07103901 371.95266902 -147.23561117 375.50604753 -151.8125 377.25 C-159.73059668 378.06409003 -167.72071361 378.60815872 -174.4296875 373.734375 C-176.00512615 372.04322617 -176.81864694 370.32482098 -177.8125 368.25 C-179.44057697 368.25276538 -179.44057697 368.25276538 -181.10154438 368.25558662 C-207.57917948 368.30009548 -234.05680969 368.33290345 -260.53447437 368.35362434 C-273.3391586 368.36391257 -286.14381803 368.37792572 -298.94848633 368.40087891 C-310.11624646 368.42088819 -321.28398863 368.43373425 -332.45176619 368.43817699 C-338.35843392 368.44077166 -344.26505026 368.44681849 -350.17170143 368.46146011 C-355.74566823 368.47516346 -361.3195631 368.47919721 -366.89354515 368.47621536 C-368.92545336 368.47675988 -370.95736431 368.4806606 -372.98925781 368.48841095 C-408.99078069 368.61884987 -439.57041145 361.54187638 -466.4375 336.125 C-479.83589049 322.27739234 -489.50872357 305.02225098 -493.8125 286.25 C-494.03808594 285.29609375 -494.26367188 284.3421875 -494.49609375 283.359375 C-497.7499928 266.57374404 -497.2460666 248.45636703 -491.8125 232.25 C-491.52375 231.29738281 -491.235 230.34476563 -490.9375 229.36328125 C-486.75879972 216.58466655 -479.87798802 205.12754314 -470.8125 195.25 C-469.56339844 193.87908203 -469.56339844 193.87908203 -468.2890625 192.48046875 C-453.21282888 176.67473995 -434.13160129 166.07948352 -412.8125 161.25 C-411.89597656 161.02699219 -410.97945313 160.80398438 -410.03515625 160.57421875 C-402.30152773 158.90484519 -394.68603873 159.05873995 -386.8125 159.25 C-386.42578125 158.09951172 -386.42578125 158.09951172 -386.03125 156.92578125 C-384.74408195 154.0997873 -383.84852555 153.12997468 -381.3125 151.4375 C-380.7040625 151.01855469 -380.095625 150.59960938 -379.46875 150.16796875 C-377.8125 149.25 -377.8125 149.25 -375.8125 149.25 C-375.77511719 148.66734375 -375.73773437 148.0846875 -375.69921875 147.484375 C-373.80357778 123.84461705 -362.44045827 103.68088617 -345.8125 87.25 C-344.73935547 86.16138672 -344.73935547 86.16138672 -343.64453125 85.05078125 C-325.73028475 67.94318 -301.64052227 60.61437016 -277.35131836 60.91381836 C-264.68576406 61.23961714 -252.87134704 63.46342823 -241.12109375 68.375 C-238.75643135 69.42720787 -238.75643135 69.42720787 -235.8125 69.25 C-234.13795867 67.0102254 -232.65731589 64.80638729 -231.1875 62.4375 C-205.55068169 22.81990957 -163.91793993 -4.79525181 -118.125 -15.375 C-77.96270356 -23.44272805 -36.66351465 -18.49618877 0 0 Z " fill="#1656D3" transform="translate(909.8125,299.75)"/>
<path d="M0 0 C0.88816406 0.39445312 1.77632812 0.78890625 2.69140625 1.1953125 C9.02460389 4.34538993 13.90239494 9.17854632 19 14 C20.99380001 15.84012104 22.99752058 17.66933472 25 19.5 C26.02736328 20.44398917 27.05470724 21.38799936 28.08203125 22.33203125 C30.60156293 24.63569944 33.13906135 26.91597149 35.6875 29.1875 C40.27575322 33.30440779 44.76583831 37.52056934 49.25 41.75 C49.97550049 42.43425049 50.70100098 43.11850098 51.44848633 43.82348633 C52.17447021 44.50822021 52.9004541 45.1929541 53.6484375 45.8984375 C57.71512381 49.73346567 61.78821646 53.56139138 65.875 57.375 C66.7397998 58.18662598 66.7397998 58.18662598 67.62207031 59.01464844 C70.00120451 61.23029782 72.28786255 63.19190836 75 65 C76.02226657 68.80621182 75.97265133 72.18771553 75 76 C72.21210183 79.035814 68.85360506 80.62850884 65.1875 82.4375 C63.14684245 83.538716 61.10780425 84.64293754 59.0703125 85.75 C58.04325195 86.29269531 57.01619141 86.83539063 55.95800781 87.39453125 C51.69288688 89.70944007 47.63292762 92.29966627 43.5625 94.9375 C36.70040634 99.3216556 29.77766895 103.59414169 22.8125 107.8125 C14.93860159 112.5828468 7.10855229 117.41599809 -0.6875 122.3125 C-9.57704998 127.8934754 -18.52053334 133.378029 -27.5 138.8125 C-35.33636112 143.55539875 -43.16281179 148.30919232 -50.91479492 153.18920898 C-58.30112603 157.83374021 -65.74747797 162.38082893 -73.18432617 166.94384766 C-80.93734394 171.70891802 -88.64837225 176.53520099 -96.30200195 181.45849609 C-97.01573975 181.91434082 -97.72947754 182.37018555 -98.46484375 182.83984375 C-99.079646 183.23550537 -99.69444824 183.63116699 -100.32788086 184.03881836 C-102 185 -102 185 -105 186 C-107.44384555 190.15453744 -107.16833694 193.41010489 -106 198 C-104.6469872 200.60314994 -104.6469872 200.60314994 -102 202 C-93.16429487 203.21902478 -87.88952355 199.62155476 -80.5625 195 C-79.37666862 194.27196997 -78.18971543 193.54576436 -77.00170898 192.82128906 C-73.92709097 190.94022986 -70.86715448 189.03656273 -67.81005859 187.12719727 C-64.93410742 185.33622525 -62.0449545 183.56720953 -59.15625 181.796875 C-54.79012515 179.11939189 -50.43000629 176.43254527 -46.07421875 173.73828125 C-40.70295971 170.42259572 -35.2979784 167.1676875 -29.875 163.9375 C-22.6912384 159.65393823 -15.58280176 155.26087676 -8.5 150.8125 C0.31032426 145.28008739 9.16500456 139.8280477 18.0625 134.4375 C18.65309204 134.07961395 19.24368408 133.72172791 19.85217285 133.35299683 C22.78578968 131.57566867 25.72005295 129.79941155 28.65478516 128.02392578 C33.68889526 124.97818262 38.72131764 121.9296973 43.75 118.875 C44.66676514 118.318125 45.58353027 117.76125 46.52807617 117.1875 C54.68164305 112.22065648 62.77534597 107.15934846 70.84667969 102.06005859 C73.55426264 100.35626932 76.27529812 98.67622842 79 97 C79.83047852 96.46777832 80.66095703 95.93555664 81.51660156 95.38720703 C83.65505024 94.08057341 85.65888385 92.89409162 88 92 C90.69140625 92.73046875 90.69140625 92.73046875 93 94 C94.98398249 93.81715705 96.96366876 93.58380846 98.9375 93.3125 C104.61049228 93.19711711 107.30251319 94.50257391 111.35253906 98.18896484 C113.73053111 100.53485728 116.05843975 102.92364031 118.36279297 105.34179688 C120.65067839 107.6590229 123.13533823 109.66900506 125.6875 111.6875 C129.41609555 114.67365193 132.98565879 117.76402245 136.5 121 C140.9698512 125.11378909 145.59044893 128.97087297 150.31640625 132.78515625 C153.80550916 135.66480887 157.12996921 138.70693876 160.47265625 141.75390625 C163.06962393 144.06187598 165.73404013 146.25555863 168.4375 148.4375 C172.26455727 151.53148714 175.94280873 154.7283055 179.5625 158.0625 C184.52057717 162.62764598 189.67833662 166.86734167 195 171 C191.40997417 174.8597428 187.32150222 177.90576867 183.125 181.0625 C181.59056207 182.22579289 180.05671632 183.38986727 178.5234375 184.5546875 C177.75999023 185.13444336 176.99654297 185.71419922 176.20996094 186.31152344 C173.03219916 188.73942893 169.88816987 191.20875208 166.75 193.6875 C160.73419631 198.43380412 154.67300333 203.11783392 148.59130859 207.77929688 C145.97462222 209.78657394 143.36279461 211.80016129 140.75 213.8125 C137.13757175 216.5939261 133.51983945 219.36818898 129.89453125 222.1328125 C129.18433838 222.67494385 128.47414551 223.2170752 127.74243164 223.77563477 C126.29402607 224.87982299 124.84400134 225.98189065 123.39233398 227.08178711 C119.87316653 229.75769213 116.40484101 232.46932281 113.015625 235.30859375 C112.07674438 236.08408569 112.07674438 236.08408569 111.11889648 236.87524414 C109.94721048 237.84803332 108.78696434 238.83483411 107.64086914 239.83764648 C104.84315713 242.14394401 103.4752288 243.02199597 99.79296875 242.8515625 C97.85387139 242.26034121 95.92319449 241.64106483 94 241 C86.56570237 240.43219396 79.37969244 240.69893281 73.0625 245 C70.94659221 246.83116246 70.94659221 246.83116246 70 249 C41.66102879 249.11710153 13.32209415 249.20511922 -15.01707077 249.25906086 C-28.17715318 249.28477906 -41.33708475 249.31980701 -54.49707031 249.37719727 C-65.97504129 249.42722821 -77.45290296 249.45933734 -88.93097997 249.47044247 C-95.00155636 249.47692797 -101.07182019 249.49203635 -107.14229584 249.52865028 C-112.87148837 249.56292149 -118.6002435 249.57299084 -124.32952881 249.56553841 C-126.41747678 249.56689917 -128.50544142 249.576644 -130.59329987 249.59602737 C-157.74272839 249.83543384 -180.65318954 242.94933854 -200.38671875 223.66796875 C-216.03770386 207.21981971 -222.82849854 187.0911217 -222.37109375 164.75390625 C-221.35646437 143.03506021 -210.61769653 125.46579889 -195 111 C-181.34282473 99.19570369 -162.90844592 91.75734487 -145 91.5 C-144.09096924 91.48130859 -143.18193848 91.46261719 -142.24536133 91.44335938 C-136.81924611 91.49593703 -133.99205674 92.00794326 -130 96 C-124.36374458 98.56193428 -118.5920959 98.98990102 -112.6328125 97.34765625 C-106.21068122 94.82853742 -102.50874881 90.94847751 -98.86328125 85.2109375 C-96.89422845 80.16802401 -97.46614391 74.30131511 -98 69 C-99.92293518 65.78170896 -99.92293518 65.78170896 -102 63 C-104.43691283 51.91528148 -98.18328724 37.91682158 -92.65234375 28.515625 C-81.12602397 10.96727999 -65.83385467 -0.58536148 -45.25 -5.109375 C-29.44944139 -8.10137344 -14.54547018 -6.71823926 0 0 Z " fill="none" transform="translate(662,393)"/>
<path d="M0 0 C0.8647998 0.20367187 1.72959961 0.40734375 2.62060547 0.6171875 C40.9277886 9.8502374 75.35095806 33.87300168 96.44775391 67.29345703 C108.78370196 87.82726263 121.67208712 115.35488988 120 140 C118.97495415 142.57754247 117.88441014 143.89389455 116 146 C114.82265079 148.83818023 114.82265079 148.83818023 115.24609375 151.27734375 C115.49011151 154.66869259 115.22265444 156.80166553 114 160 C110.16310091 164.23333147 105.05917301 167.22561098 100.34521484 170.38476562 C96.3908633 173.10827071 92.6438591 176.09032347 88.875 179.0625 C87.36358422 180.24257564 85.85186904 181.42226792 84.33984375 182.6015625 C79.23120616 186.59943018 74.12952449 190.6061165 69.03125 194.6171875 C62.53053584 199.72728497 55.98739676 204.7802912 49.42944336 209.81665039 C43.83279209 214.11961142 38.26404445 218.4582269 32.6940918 222.7956543 C26.1492726 227.88980685 19.58153535 232.95338102 13 238 C8.66663087 236.30711132 5.73150955 233.10227991 2.4375 229.9375 C-2.66093708 225.11504858 -7.87510943 220.56488308 -13.35546875 216.17578125 C-16.15839248 213.869683 -18.83003275 211.45848469 -21.5 209 C-25.05670244 205.72581577 -28.67161811 202.59357567 -32.4375 199.5625 C-36.45597804 196.32253052 -40.28728368 192.95227342 -44.0625 189.4375 C-48.38401357 185.41488074 -52.8488496 181.67146692 -57.49609375 178.03125 C-61.26287859 174.9755119 -64.80729278 171.69016233 -68.375 168.40625 C-71.38671095 165.64551496 -74.4528602 162.95415187 -77.5390625 160.27734375 C-80.38785689 157.78655293 -80.27097134 156.264939 -80.75 152.4375 C-81.89077514 145.3308934 -84.25303548 140.74696452 -89.3125 135.6875 C-94.75149501 132.27231709 -99.17434581 130.9526807 -105.5 130.8125 C-110.00394921 130.50809516 -112.03029134 129.60664187 -115.1875 126.375 C-115.73792969 125.72273437 -116.28835938 125.07046875 -116.85546875 124.3984375 C-119.33878103 121.62110829 -122.05594063 119.27685601 -124.87475586 116.84716797 C-128.22202488 113.93787016 -131.45495072 110.91056077 -134.6875 107.875 C-135.37521484 107.23046875 -136.06292969 106.5859375 -136.77148438 105.921875 C-141.81862102 101.16833911 -146.73726503 96.30181853 -151.61010742 91.37060547 C-155.06101624 87.89299611 -158.61138416 84.6045232 -162.34375 81.43359375 C-164.68864253 79.40393442 -166.84180317 77.22564049 -169 75 C-167.41632287 70.15581112 -164.66929143 66.51036585 -161.625 62.5 C-161.09624268 61.7994751 -160.56748535 61.0989502 -160.02270508 60.37719727 C-154.76015995 53.51216242 -149.00452151 47.21582432 -143 41 C-142.38898437 40.33742188 -141.77796875 39.67484375 -141.1484375 38.9921875 C-105.92004521 1.68132867 -48.87286036 -11.85461857 0 0 Z " fill="none" transform="translate(864,311)"/>
<path d="M0 0 C0.6815918 0.34361572 1.36318359 0.68723145 2.06542969 1.04125977 C16.27718704 8.31443302 29.16138084 17.29421992 40.88671875 28.140625 C42.9588264 30.04035018 45.08591131 31.83226381 47.25 33.625 C52.21434567 37.9500738 56.11790553 43.1018911 60.1875 48.25 C60.83460938 49.00796875 61.48171875 49.7659375 62.1484375 50.546875 C82.0671179 74.12408853 100.46938449 111.71564159 99.1875 143.25 C98.24648438 143.21519531 97.30546875 143.18039062 96.3359375 143.14453125 C95.09070313 143.11746094 93.84546875 143.09039062 92.5625 143.0625 C91.33273437 143.02769531 90.10296875 142.99289062 88.8359375 142.95703125 C82.69201655 143.45038679 78.78473533 146.32882869 74.1875 150.25 C74.08203857 149.6108667 73.97657715 148.9717334 73.86791992 148.31323242 C73.37612393 145.35365059 72.8756023 142.3956045 72.375 139.4375 C72.1265332 137.93026367 72.1265332 137.93026367 71.87304688 136.39257812 C70.08097945 125.87686174 67.38335552 116.0537778 63.1875 106.25 C62.6821875 105.03183594 62.176875 103.81367188 61.65625 102.55859375 C45.42588639 63.91239948 15.29283037 34.83301297 -23.48828125 18.87890625 C-59.30856862 4.93627867 -100.94514944 3.4105333 -136.71386719 18.47167969 C-147.99113115 23.43571236 -158.97155468 28.77273542 -168.8125 36.25 C-169.66457031 36.89453125 -170.51664063 37.5390625 -171.39453125 38.203125 C-177.45464674 42.93206305 -183.181506 48.02121986 -188.8125 53.25 C-189.40546875 53.78882813 -189.9984375 54.32765625 -190.609375 54.8828125 C-199.59714733 63.39979675 -206.91456851 74.03258612 -213.8125 84.25 C-212.39710657 87.4739517 -210.69835072 89.60666792 -208.1875 92.0625 C-207.24003906 93.00029297 -207.24003906 93.00029297 -206.2734375 93.95703125 C-204.23036496 95.86065598 -202.15357378 97.68930988 -200.0390625 99.51171875 C-195.0441966 103.85884384 -190.446462 108.56459343 -185.8125 113.2890625 C-181.93379948 117.21321654 -177.95236716 120.91349576 -173.76806641 124.50878906 C-171.80561096 126.25613391 -169.96889811 128.07806932 -168.13671875 129.9609375 C-160.58112927 138.16688754 -160.58112927 138.16688754 -150.375 141.625 C-147.81810293 141.57592803 -147.81810293 141.57592803 -145.8125 141.25 C-145.8125 141.58 -145.8125 141.91 -145.8125 142.25 C-146.53695313 142.28738281 -147.26140625 142.32476562 -148.0078125 142.36328125 C-156.02333271 142.90833662 -160.96123628 144.0480283 -166.5625 150.0625 C-169.25902151 153.28284909 -170.87676175 156.09116335 -171.8125 160.25 C-176.78198626 156.048991 -181.58392371 151.71925016 -186.3125 147.25 C-187.72771512 145.91780995 -189.14308326 144.58578245 -190.55859375 143.25390625 C-191.26870605 142.58504395 -191.97881836 141.91618164 -192.71044922 141.22705078 C-196.53642558 137.62858893 -200.37919718 134.04815521 -204.22094727 130.46655273 C-207.41933791 127.48434374 -210.61484313 124.49916388 -213.8046875 121.5078125 C-223.14640117 112.69793268 -223.14640117 112.69793268 -232.8125 104.25 C-233.84697266 103.36248047 -233.84697266 103.36248047 -234.90234375 102.45703125 C-240.47157021 97.86657922 -246.12785535 94.91650199 -252.8125 92.25 C-253.65683594 91.85554688 -254.50117187 91.46109375 -255.37109375 91.0546875 C-271.54058935 84.3428214 -292.21394223 87.37934723 -308.13671875 93.53515625 C-325.51083219 101.52146448 -338.74259473 116.56855542 -345.42578125 134.35546875 C-347.84440799 141.30963386 -350.43769658 148.8575129 -348.8125 156.25 C-347.8225 157.61125 -347.8225 157.61125 -346.8125 159 C-343.49533144 164.3903989 -344.01057188 170.10188438 -344.8125 176.25 C-347.27982339 183.17160634 -353.16119945 188.50372582 -359.6875 191.625 C-367.14494077 193.11648815 -372.91752267 192.45973082 -379.8125 189.25 C-380.29307861 188.72986328 -380.77365723 188.20972656 -381.26879883 187.67382812 C-384.26994939 184.90572595 -388.61542138 185.72294766 -392.5 185.75 C-393.44101562 185.75572021 -394.38203125 185.76144043 -395.3515625 185.76733398 C-415.0457275 186.26336239 -433.57614212 196.22374733 -447.625 209.75 C-462.60226481 225.65003468 -469.5158621 244.35245649 -469.35375977 266.02758789 C-468.62114712 287.50078131 -458.38763135 305.96328909 -443.2578125 320.74609375 C-423.73825977 337.8627836 -400.62106589 342.02504327 -375.43847656 341.90942383 C-373.27790918 341.91790073 -371.11734943 341.92855556 -368.95680237 341.94119263 C-363.15847593 341.96906279 -357.3605229 341.96691675 -351.56215 341.95889878 C-345.47763816 341.95575028 -339.39324046 341.9808762 -333.30877686 342.00285339 C-321.81694028 342.04014262 -310.325222 342.0524324 -298.83333087 342.0554778 C-285.73753371 342.06018511 -272.64185384 342.09316188 -259.54610872 342.12837565 C-232.63491998 342.20011224 -205.72377669 342.2367952 -178.8125 342.25 C-179.30047562 343.19565826 -179.78845123 344.14131653 -180.29121399 345.1156311 C-181.66331357 347.942625 -182.18014901 349.29894024 -182.10546875 352.3359375 C-182.09580078 353.03847656 -182.08613281 353.74101563 -182.07617188 354.46484375 C-182.05103516 355.17769531 -182.02589844 355.89054687 -182 356.625 C-181.97969727 357.72908203 -181.97969727 357.72908203 -181.95898438 358.85546875 C-181.92394869 360.65396743 -181.87015288 362.45208422 -181.8125 364.25 C-181.1525 364.25 -180.4925 364.25 -179.8125 364.25 C-179.4825 365.57 -179.1525 366.89 -178.8125 368.25 C-206.256099 368.29683687 -233.69969195 368.33204593 -261.14332294 368.35362434 C-273.88747307 368.36391237 -286.63159829 368.37792514 -299.37573242 368.40087891 C-310.49075484 368.4208888 -321.60575921 368.43373439 -332.72079915 368.43817699 C-338.59952131 368.44077155 -344.47819183 368.44681773 -350.35689735 368.46146011 C-355.90459942 368.47516442 -361.45222921 368.47919702 -366.99994659 368.47621536 C-369.02217948 368.47675984 -371.04441512 368.48065997 -373.06663322 368.48841095 C-409.03737269 368.61937136 -439.5973575 361.51638481 -466.4375 336.125 C-479.83589049 322.27739234 -489.50872357 305.02225098 -493.8125 286.25 C-494.03808594 285.29609375 -494.26367188 284.3421875 -494.49609375 283.359375 C-497.7499928 266.57374404 -497.2460666 248.45636703 -491.8125 232.25 C-491.52375 231.29738281 -491.235 230.34476563 -490.9375 229.36328125 C-486.75879972 216.58466655 -479.87798802 205.12754314 -470.8125 195.25 C-469.56339844 193.87908203 -469.56339844 193.87908203 -468.2890625 192.48046875 C-453.21282888 176.67473995 -434.13160129 166.07948352 -412.8125 161.25 C-411.89597656 161.02699219 -410.97945313 160.80398438 -410.03515625 160.57421875 C-402.30152773 158.90484519 -394.68603873 159.05873995 -386.8125 159.25 C-386.42578125 158.09951172 -386.42578125 158.09951172 -386.03125 156.92578125 C-384.74408195 154.0997873 -383.84852555 153.12997468 -381.3125 151.4375 C-380.7040625 151.01855469 -380.095625 150.59960938 -379.46875 150.16796875 C-377.8125 149.25 -377.8125 149.25 -375.8125 149.25 C-375.77511719 148.66734375 -375.73773437 148.0846875 -375.69921875 147.484375 C-373.80357778 123.84461705 -362.44045827 103.68088617 -345.8125 87.25 C-344.73935547 86.16138672 -344.73935547 86.16138672 -343.64453125 85.05078125 C-325.73028475 67.94318 -301.64052227 60.61437016 -277.35131836 60.91381836 C-264.68576406 61.23961714 -252.87134704 63.46342823 -241.12109375 68.375 C-238.75643135 69.42720787 -238.75643135 69.42720787 -235.8125 69.25 C-234.13795867 67.0102254 -232.65731589 64.80638729 -231.1875 62.4375 C-205.55068169 22.81990957 -163.91793993 -4.79525181 -118.125 -15.375 C-77.96270356 -23.44272805 -36.66351465 -18.49618877 0 0 Z " fill="#379FEB" transform="translate(909.8125,299.75)"/>
<path d="M0 0 C10.73852572 4.3918485 18.97925292 9.59808287 27.3125 17.6875 C27.92738281 18.22890625 28.54226563 18.7703125 29.17578125 19.328125 C42.92251924 31.84239682 50.48101365 51.15316831 51.6328125 69.33203125 C52.56764584 90.73649115 46.02733393 109.24747229 32.3125 125.6875 C31.5390625 126.66203125 30.765625 127.6365625 29.96875 128.640625 C22.24794218 137.86693948 11.21323297 144.03935196 0.3125 148.6875 C-0.81671875 149.19539062 -1.9459375 149.70328125 -3.109375 150.2265625 C-19.49399361 156.52022501 -40.86583966 156.51440913 -57.25390625 150.234375 C-58.95353516 149.46867187 -58.95353516 149.46867187 -60.6875 148.6875 C-61.29577637 148.42517578 -61.90405273 148.16285156 -62.53076172 147.89257812 C-70.86601464 144.26534049 -77.84929035 139.65786347 -84.6875 133.6875 C-85.72492481 132.80666129 -86.76408345 131.9278618 -87.8046875 131.05078125 C-90.02566852 129.17878331 -92.2410822 127.3005168 -94.453125 125.41796875 C-97.39362195 122.92414063 -100.37789513 120.48812301 -103.375 118.0625 C-107.79329134 114.47023704 -112.01524201 110.70628809 -116.22265625 106.87109375 C-119.44227085 104.01885198 -122.80922065 101.37914499 -126.1875 98.71875 C-129.63243544 95.91973996 -132.88169619 92.92445349 -136.15625 89.9296875 C-139.5374933 86.93457384 -143.07648058 84.16685987 -146.65625 81.4140625 C-148.6875 79.6875 -148.6875 79.6875 -150.6875 76.6875 C-144.87475231 71.9366966 -138.95597329 67.36034337 -132.9375 62.875 C-126.68011851 58.20795699 -120.51086022 53.44544649 -114.38671875 48.60546875 C-110.1495303 45.25715239 -105.88816108 41.94014816 -101.625 38.625 C-100.85502686 38.02574707 -100.08505371 37.42649414 -99.29174805 36.80908203 C-95.95467383 34.21464636 -92.61472475 31.62491578 -89.25 29.06640625 C-83.05839937 24.35305027 -77.00121831 19.51510779 -71 14.5625 C-70.2673291 13.96348877 -69.5346582 13.36447754 -68.77978516 12.74731445 C-65.7319807 10.2482253 -62.75174463 7.74772934 -59.875 5.05078125 C-54.04215834 -0.29279244 -49.80460365 -1.01210784 -41.9453125 -1.10546875 C-38.74541333 -1.30881966 -37.15135638 -1.77635181 -34.4375 -3.375 C-24.47891206 -9.1316521 -9.90642752 -3.64725954 0 0 Z " fill="none" transform="translate(1046.6875,488.3125)"/>
<path d="M0 0 C4.30483423 1.96560356 7.48260599 4.65548824 10.5703125 8.2578125 C11.3334375 9.0621875 12.0965625 9.8665625 12.8828125 10.6953125 C15.80227642 16.85862521 15.99185333 24.26995019 13.6875 30.734375 C10.40271783 36.36853779 5.56147034 40.82725875 -0.3046875 43.6328125 C-7.76212827 45.12430065 -13.53471017 44.46754332 -20.4296875 41.2578125 C-21.15055542 40.47760742 -21.15055542 40.47760742 -21.88598633 39.68164062 C-24.88713689 36.91353845 -29.23260888 37.73076016 -33.1171875 37.7578125 C-34.05820312 37.76353271 -34.99921875 37.76925293 -35.96875 37.77514648 C-55.662915 38.27117489 -74.19332962 48.23155983 -88.2421875 61.7578125 C-103.21945231 77.65784718 -110.1330496 96.36026899 -109.97094727 118.03540039 C-109.23833462 139.50859381 -99.00481885 157.97110159 -83.875 172.75390625 C-64.35544727 189.8705961 -41.23825339 194.03285577 -16.05566406 193.91723633 C-13.89509668 193.92571323 -11.73453693 193.93636806 -9.57398987 193.94900513 C-3.77566343 193.97687529 2.0222896 193.97472925 7.8206625 193.96671128 C13.90517434 193.96356278 19.98957204 193.9886887 26.07403564 194.01066589 C37.56587222 194.04795512 49.0575905 194.0602449 60.54948163 194.0632903 C73.64527879 194.06799761 86.74095866 194.10097438 99.83670378 194.13618815 C126.74789252 194.20792474 153.65903581 194.2446077 180.5703125 194.2578125 C180.08233688 195.20347076 179.59436127 196.14912903 179.09159851 197.1234436 C177.71949893 199.9504375 177.20266349 201.30675274 177.27734375 204.34375 C177.28701172 205.04628906 177.29667969 205.74882813 177.30664062 206.47265625 C177.3443457 207.54193359 177.3443457 207.54193359 177.3828125 208.6328125 C177.40311523 209.73689453 177.40311523 209.73689453 177.42382812 210.86328125 C177.45886381 212.66177993 177.51265962 214.45989672 177.5703125 216.2578125 C178.2303125 216.2578125 178.8903125 216.2578125 179.5703125 216.2578125 C179.9003125 217.5778125 180.2303125 218.8978125 180.5703125 220.2578125 C153.1267135 220.30464937 125.68312055 220.33985843 98.23948956 220.36143684 C85.49533943 220.37172487 72.75121421 220.38573764 60.00708008 220.40869141 C48.89205766 220.4287013 37.77705329 220.44154689 26.66201335 220.44598949 C20.78329119 220.44858405 14.90462067 220.45463023 9.02591515 220.46927261 C3.47821308 220.48297692 -2.06941671 220.48700952 -7.61713409 220.48402786 C-9.63936698 220.48457234 -11.66160262 220.48847247 -13.68382072 220.49622345 C-49.65456019 220.62718386 -80.214545 213.52419731 -107.0546875 188.1328125 C-120.45307799 174.28520484 -130.12591107 157.03006348 -134.4296875 138.2578125 C-134.65527344 137.30390625 -134.88085938 136.35 -135.11328125 135.3671875 C-138.3671803 118.58155654 -137.8632541 100.46417953 -132.4296875 84.2578125 C-132.1409375 83.30519531 -131.8521875 82.35257813 -131.5546875 81.37109375 C-127.37598722 68.59247905 -120.49517552 57.13535564 -111.4296875 47.2578125 C-110.59695313 46.34386719 -109.76421875 45.42992187 -108.90625 44.48828125 C-93.83001638 28.68255245 -74.74878879 18.08729602 -53.4296875 13.2578125 C-52.05490234 12.92330078 -52.05490234 12.92330078 -50.65234375 12.58203125 C-42.91871523 10.91265769 -35.30322623 11.06655245 -27.4296875 11.2578125 C-27.18863281 10.51144531 -26.94757813 9.76507813 -26.69921875 8.99609375 C-21.94166641 -1.26558068 -9.89705323 -3.02321562 0 0 Z " fill="#2F8AE5" transform="translate(550.4296875,447.7421875)"/>
<path d="M0 0 C2.00846766 1.60677412 2.67788149 2.74746409 3.65234375 5.109375 C5.50036239 9.58588617 8.57949254 12.85756391 11.77734375 16.421875 C10.4921875 17.21744792 9.20703125 18.01302083 7.921875 18.80859375 C7.08325928 19.32776367 6.24464355 19.84693359 5.38061523 20.38183594 C3.48829657 21.55321612 1.59587799 22.72443492 -0.29663086 23.89550781 C-4.96955735 26.78737406 -9.6414194 29.68088923 -14.30859375 32.58203125 C-24.73429937 39.05804579 -35.20362784 45.45937751 -45.70056152 51.81912231 C-55.4112545 57.70310472 -65.0906492 63.63566948 -74.75537109 69.5949707 C-82.9705467 74.65816284 -91.20781301 79.68412278 -99.4543457 84.69604492 C-104.21846515 87.59189859 -108.97790584 90.49439501 -113.72265625 93.421875 C-120.43883682 97.56234757 -127.16736147 101.68278033 -133.91845703 105.76611328 C-138.72130381 108.67115502 -143.51052451 111.59154124 -148.25488281 114.59147644 C-151.02733744 116.34016524 -153.81446306 118.06534483 -156.59765625 119.796875 C-157.6247168 120.4576001 -158.65177734 121.1183252 -159.70996094 121.79907227 C-165.89280806 125.61182799 -169.93056375 127.42148137 -177.22265625 126.421875 C-180.92485133 123.87661588 -181.99084175 122.23322575 -183.22265625 117.921875 C-183.22265625 113.7243822 -182.80106063 112.71090107 -180.22265625 109.421875 C-177.17971892 107.08290664 -173.93350568 105.1079462 -170.66015625 103.109375 C-169.69432617 102.50762451 -168.72849609 101.90587402 -167.73339844 101.28588867 C-164.57018452 99.3196006 -161.39693786 97.37023699 -158.22265625 95.421875 C-156.02046269 94.06049521 -153.81864246 92.69851133 -151.6171875 91.3359375 C-141.47011562 85.06592904 -131.29207622 78.84634766 -121.11035156 72.6328125 C-111.25709772 66.61704833 -101.43164713 60.55595649 -91.6015625 54.50244141 C-86.14263646 51.14109981 -80.68258957 47.7815801 -75.22265625 44.421875 C-74.15442627 43.76445313 -73.08619629 43.10703125 -71.9855957 42.4296875 C-66.50655957 39.05771915 -61.0270953 35.68644977 -55.546875 32.31640625 C-41.56243267 23.71583278 -41.56243267 23.71583278 -27.59667969 15.08496094 C-25.83816162 13.99635452 -24.07844053 12.90968848 -22.31738281 11.82519531 C-18.57303179 9.51679187 -14.84783976 7.19158583 -11.17578125 4.76953125 C-10.27146362 4.18268555 -10.27146362 4.18268555 -9.34887695 3.58398438 C-7.79790552 2.57407035 -6.2577598 1.54758162 -4.71875 0.51953125 C-2.22265625 -0.578125 -2.22265625 -0.578125 0 0 Z " fill="#338BE6" transform="translate(737.22265625,469.578125)"/>
<path d="M0 0 C5.57633596 3.34343872 9.64183894 8.06347041 12.0625 14.0625 C13.34201345 21.88174885 12.70429868 28.79475895 8.30078125 35.5234375 C4.88151928 39.77732247 1.27215503 42.94768697 -4.35473633 43.79980469 C-6.53649158 43.93788089 -8.68919204 43.9586282 -10.875 43.9375 C-11.97521484 43.9674707 -11.97521484 43.9674707 -13.09765625 43.99804688 C-19.22754325 43.99256397 -22.73233877 42.02408028 -27.203125 37.75390625 C-32.8091618 31.08518665 -33.94689158 26.17147231 -33.375 17.5 C-33.32988281 16.80390625 -33.28476562 16.1078125 -33.23828125 15.390625 C-32.22068289 8.78284347 -27.4503418 4.50378846 -22.375 0.5 C-15.82774026 -2.86959947 -6.74260335 -2.98205158 0 0 Z " fill="#022CA0" transform="translate(1012.375,443.5)"/>
<path d="M0 0 C1.77697266 -0.02513672 1.77697266 -0.02513672 3.58984375 -0.05078125 C10.00037264 0.61983651 14.485128 3.93414418 19.0625 8.3125 C23.53989477 13.85033037 23.72803324 18.89964311 23.51171875 25.93359375 C22.86859337 30.77101509 21.25371347 33.70028212 18.0625 37.3125 C17.60488281 37.87582031 17.14726563 38.43914062 16.67578125 39.01953125 C12.53769617 43.67912843 7.96154377 45.75939572 1.83203125 46.62890625 C-3.88593441 46.93399564 -8.3024683 45.69201395 -12.9375 42.3125 C-18.62573304 36.95484564 -23.00659579 31.46442659 -23.3125 23.4375 C-22.97633054 14.80053091 -20.19148524 10.00171684 -14.0703125 3.9765625 C-9.58544508 0.47738023 -5.60781278 0.01826649 0 0 Z " fill="#0232AC" transform="translate(759.9375,441.6875)"/>
<path d="M0 0 C6.1319588 -0.2906586 10.69605118 0.4872128 15.6796875 4.19140625 C19.59288117 7.88848666 23.40752965 11.84834329 24.6796875 17.19140625 C24.85757813 17.90941406 25.03546875 18.62742187 25.21875 19.3671875 C26.38937573 25.7461057 25.1678759 29.5776776 21.57421875 34.921875 C18.24606905 38.90879248 14.31536775 41.87356612 9.6796875 44.19140625 C-6.59980286 45.49525559 -6.59980286 45.49525559 -12.8359375 40.625 C-14.93933132 38.59356439 -16.7549954 36.66982499 -18.3203125 34.19140625 C-18.3203125 33.20140625 -18.3203125 32.21140625 -18.3203125 31.19140625 C-18.9803125 31.19140625 -19.6403125 31.19140625 -20.3203125 31.19140625 C-22.35947973 25.07390456 -22.69313886 18.17512134 -19.96875 12.25390625 C-16.19702996 6.67109597 -12.25729172 2.26512786 -5.5703125 0.44140625 C-3.71320738 0.29855201 -1.85628623 0.15312799 0 0 Z " fill="#022DA4" transform="translate(748.3203125,632.80859375)"/>
<path d="M0 0 C4.30483423 1.96560356 7.48260599 4.65548824 10.5703125 8.2578125 C11.3334375 9.0621875 12.0965625 9.8665625 12.8828125 10.6953125 C15.80227642 16.85862521 15.99185333 24.26995019 13.6875 30.734375 C10.40271783 36.36853779 5.56147034 40.82725875 -0.3046875 43.6328125 C-7.38201945 45.04827889 -14.0545733 44.93226732 -20.4296875 41.2578125 C-26.09861831 36.86126696 -29.77973876 31.99732634 -30.77734375 24.72265625 C-31.16877682 17.58653023 -29.73701493 12.00741246 -25.4296875 6.2578125 C-18.27812405 -1.15960833 -9.87472849 -3.01639616 0 0 Z " fill="#0337B5" transform="translate(550.4296875,447.7421875)"/>
<path d="M0 0 C0.33 0 0.66 0 1 0 C1.02578125 0.59167969 1.0515625 1.18335938 1.078125 1.79296875 C1.45704414 7.0720013 2.10636661 10.10636661 6 14 C3.69 13.67 1.38 13.34 -1 13 C-0.67 8.71 -0.34 4.42 0 0 Z " fill="#639AE1" transform="translate(783,460)"/>
<path d="M0 0 C0.33 0.99 0.66 1.98 1 3 C-0.65 4.65 -2.3 6.3 -4 8 C-4.66 7.67 -5.32 7.34 -6 7 C-4.02 4.69 -2.04 2.38 0 0 Z " fill="#58B6F0" transform="translate(694,342)"/>
<path d="M0 0 C0 0.99 0 1.98 0 3 C-3 5.1875 -3 5.1875 -6 7 C-6.66 6.67 -7.32 6.34 -8 6 C-5.36 4.02 -2.72 2.04 0 0 Z " fill="#3D72D5" transform="translate(961,483)"/>
</svg>
